<svg id="Layer_1" enable-background="new 0 0 510.997 510.997" height="512" viewBox="0 0 510.997 510.997" width="512" xmlns="http://www.w3.org/2000/svg"><g><g><g><path d="m502.734 319.117c.236-.91.463-1.826.688-2.743-.222.917-.455 1.83-.688 2.743z" fill="#b1e4f9"/></g><g><path d="m255.641.997c-98.131 0-158.575 55.347-158.741 55.44-3.787 17.481-10.374 42.85-10.374 61.465 0 140.833 118.763 254.972 259.596 254.972 60.017 0 115.159-27.944 158.719-62.639.178-1.087 5.8-23.477 5.8-54.239 0-140.832-114.168-254.999-255-254.999z" fill="#f1d333"/></g><g><path d="m465.021 366.17c12.911 0 24.59-7.896 29.163-19.97.026-.069.052-.137.078-.206 3.301-8.74 6.137-17.708 8.472-26.877.233-.913.466-1.826.688-2.743.106-.436 1.068-4.522 1.418-6.139-43.977 35.028-99.784 55.837-160.47 55.435-139.994-.928-253.606-115.618-253.27-255.615.044-18.398 2.055-36.331 5.8-53.618-.006.005-.011.01-.017.014-58.645 46.72-96.242 118.738-96.242 199.546 0 31.216 5.612 61.121 15.878 88.764 4.787 12.871 17.072 21.409 30.805 21.409z" fill="#ffa50a"/></g></g><g><circle cx="262.186" cy="304.228" fill="#fff5aa" r="103.114"/></g><g><path d="m313.864 345.44c-56.948 0-103.114-46.166-103.114-103.114 0-10.393 1.544-20.425 4.404-29.885-33.299 17.097-56.083 51.781-56.083 91.787 0 56.948 46.166 103.114 103.114 103.114 46.555 0 85.898-30.855 98.71-73.229-14.101 7.24-30.089 11.327-47.031 11.327z" fill="#ffe65a"/></g><g><path d="m433.756 431.564c4.377 0 8.549-1.858 11.477-5.111 8.476-9.418 16.266-19.465 23.275-30.075l22.482-42.163c1.135-2.717 2.224-5.458 3.267-8.222-11.389 6.32-16.325 18.266-34.963 18.266-25.336 0-25.336-22.089-50.673-22.089-25.333 0-25.333 22.089-50.666 22.089-25.334 0-25.334-22.089-50.667-22.089s-25.333 22.089-50.665 22.089-25.332-22.089-50.664-22.089c-25.334 0-25.334 22.089-50.667 22.089s-25.333-22.089-50.665-22.089c-25.333 0-25.333 22.089-50.667 22.089-19.933 0-24.188-13.671-37.436-19.501 11.388 30.665 28.507 58.543 50.053 82.337.014.015.027.03.041.045 2.567 2.834 6.232 4.424 10.055 4.424z" fill="#9dc6fb"/></g><g><path d="m255.641 510.997c75.289 0 142.935-32.642 189.604-84.533-12.613-6.021-17.104-19.122-36.622-19.122-25.333 0-25.333 22.089-50.666 22.089-25.334 0-25.334-22.089-50.667-22.089s-25.333 22.089-50.665 22.089-25.332-22.089-50.664-22.089c-25.334 0-25.334 22.089-50.667 22.089s-25.333-22.089-50.665-22.089c-20.239 0-24.32 14.089-38.055 19.759 46.657 51.525 114.08 83.896 189.067 83.896z" fill="#b1e4f9"/></g><g><g><path d="m357.722 106.477c-.736 15.585-25.275 15.331-25.275-.711v-101.855c0-2.208-1.853-3.945-4.058-3.844-3.013.139-6.06.494-9.124 1.085-31.951 6.157-53.997 36.294-50.316 68.624 3.937 34.573 35.246 59.294 69.748 55.159 10.028-1.202 19.207-4.722 27.092-9.94-2.942-2.573-5.64-5.427-8.067-8.518z" fill="#a298a5"/></g><g><path d="m344.824 75.283c-2.506-20.911 5.595-40.639 20.06-53.819 3.828-3.488 3.273-9.692-1.153-12.379-9.988-6.066-21.728-9.387-34.069-9.063 3.374 2.979 3.525 8.381.048 11.55-14.465 13.18-22.566 32.908-20.06 53.819 1.919 16.007 9.715 29.874 20.965 39.712-7.885 5.218-6.951 21.634 8.083 19.833 10.028-1.202 19.207-4.722 27.092-9.94-11.251-9.839-19.047-23.706-20.966-39.713z" fill="#afaab4"/></g><g><path d="m163.763 168.366c-6.312-23.397.623-48.249 6.637-67.643 1.788-5.765-3.451-11.333-9.282-9.773-.043.012-.087.023-.13.035-37.013 9.986-69.364 53.694-58.512 93.916s60.797 61.728 97.81 51.742c.044-.012.087-.024.131-.035 5.824-1.584 7.551-9.032 3.107-13.115-14.955-13.739-33.449-31.73-39.761-55.127z" fill="#8b818e"/></g><g><path d="m432.794 220.021c-54.354-148.855-203.174-231.273-332.398-184.087-7.304 2.667-14.388 5.691-21.245 9.05-17.56 8.602-28.498 22.555-33.414 38.038-3.836 12.081-12.886 21.799-24.84 26.013l-.29.102c-12.134 4.278-20.251 15.745-20.251 28.611 0 16.755 13.582 30.337 30.337 30.337h40.348s82.859-11.913 88.031-11.015c140.296 24.354 213.488 110.048 266.099 197.256 7.421 12.301 26.332 7.53 27.099-6.816 2.214-41.415-3.911-84.864-19.476-127.489z" fill="#a298a5"/></g><g><path d="m91.771 103.844c-30.383 2.212-70.948 5.183-71.165 5.293-12.134 4.278-20.251 15.744-20.251 28.611 0 16.755 13.582 30.337 30.337 30.337h40.348s89.44-20.28 94.612-19.382c127.426 22.12 192.776 102.04 243.35 181.806 5.108 8.056 11.342 15.817 16.168 23.817 7.421 12.301 26.332 7.53 27.099-6.816.01-.184.02-.368.029-.552 1.756-34.013-30.51-86.964-54.012-111.614-35.6-37.341-78.761-74.517-157.73-107.619-46.952-19.683-98.008-27.577-148.785-23.881z" fill="#8b818e"/></g><g><path d="m149.815 176.83c119.221 27.381 209.631 88.135 259.188 153.678-44.652-164.311-191.045-258.544-312.581-190.212-11.831 6.651-20.207 16.505-25.381 27.789 5.128.273 37.298-.78 78.774 8.745z" fill="#f1f1f4"/></g><g><path d="m450.951 327.534-13.78 4.838c-21.282 7.472-35.277 28.202-33.577 50.693.533 7.054 2.515 11.731 7.199 10.196 7.893-2.588 16.169-4.219 24.699-4.219 11.583 0 22.697 3.012 33.02 7.339 8.748-13.243 16.301-27.345 22.49-42.161-10.459-12.757-24.361-22.653-40.051-26.686z" fill="#a298a5"/></g><g><g><path d="m450.951 327.537c-4.99-1.282-10.16-1.975-15.458-1.975-41.661 0-75.433 42.62-75.433 80.956v.135c.013 6.036 6.753 9.643 11.853 6.416 11.119-7.037 24.351-15.039 38.882-19.804 1.775-25.286 17.583-51.585 40.156-65.728z" fill="#8b818e"/></g></g><g><path d="m195.915 132.916c-6.312-23.397.623-48.249 6.637-67.643 1.788-5.765-3.451-11.333-9.282-9.773-.044.012-.087.023-.13.035-37.013 9.986-69.364 53.694-58.512 93.916s60.797 61.728 97.81 51.742c.044-.012.087-.024.13-.035 5.824-1.584 7.551-9.032 3.107-13.115-14.954-13.738-33.448-31.73-39.76-55.127z" fill="#a298a5"/></g><g><path d="m76.226 111.82c-2.863 0-5.184-2.321-5.184-5.184v-14.364c0-2.863 2.321-5.184 5.184-5.184 2.863 0 5.184 2.321 5.184 5.184v14.363c0 2.864-2.321 5.185-5.184 5.185z" fill="#8b818e"/></g><g><path d="m76.226 106.82c-2.863 0-5.184-2.321-5.184-5.184v-14.364c0-2.863 2.321-5.184 5.184-5.184 2.863 0 5.184 2.321 5.184 5.184v14.363c0 2.863-2.321 5.185-5.184 5.185z" fill="#454045"/></g></g></g></svg>