<svg id="Layer_1" enable-background="new 0 0 510 510" height="512" viewBox="0 0 510 510" width="512" xmlns="http://www.w3.org/2000/svg"><g><g><g><path d="m502.093 318.121c.236-.91.463-1.826.688-2.743-.222.917-.455 1.83-.688 2.743z" fill="#b1e4f9"/></g><g><path d="m255 0c-58.434 0-103.505 19.625-130.442 35.523-55.209 116.181-6.77 256.043 109.439 311.193 33.978 16.125 71.858 25.162 111.484 25.162 60.017 0 115.159-27.944 158.719-62.639.178-1.087 5.8-23.477 5.8-54.239 0-140.833-114.167-255-255-255z" fill="#b1e4f9"/></g><g><path d="m345.459 364.679c-140.833 0-255-114.167-255-255l-77.083 63.613c-8.673 25.65-13.376 53.129-13.376 81.708 0 60.211 20.868 115.547 55.766 159.172l398.45-.015c22.261-27.837 38.812-60.441 47.877-96.036.233-.913.466-1.826.688-2.743.106-.436 1.068-4.522 1.418-6.139-43.559 34.695-98.724 55.44-158.74 55.44z" fill="#9dc6fb"/></g></g><g><g><path d="m255 352.219c-84.285 0-158.136 24.786-199.221 61.943 17.039 21.299 37.42 39.808 60.35 54.729l279.227-.983c22.32-14.751 42.185-32.92 58.85-53.759-41.086-37.15-114.93-61.93-199.206-61.93z" fill="#afaab4"/></g><g><path d="m116.131 468.888c39.958 25.996 87.645 41.112 138.869 41.112 51.864 0 100.103-15.49 140.358-42.089-8.778-63.854-67.911-113.229-139.553-113.229-72.006 0-131.367 49.88-139.674 114.206z" fill="#c6c1c8"/></g><g><g><path d="m96.242 55.455c-37.904 30.196-66.995 70.97-82.846 117.845 3.055 17.78 11.047 34.254 24.133 47.341 38.023 38.023 104.646 33.046 148.808-11.115 44.162-44.162 49.138-110.785 11.115-148.808-19.198-19.198-45.687-27.427-72.895-25.193-18.297 10.798-28.231 19.878-28.298 19.916-.006.004-.011.009-.017.014z" fill="#a298a5"/></g><g><ellipse cx="131.343" cy="154.53" fill="#55696e" rx="70.007" ry="60.275" transform="matrix(.707 -.707 .707 .707 -70.8 138.134)"/></g><g><ellipse cx="392.509" cy="140.679" fill="#afaab4" rx="97.363" ry="113.083" transform="matrix(.707 -.707 .707 .707 15.488 318.749)"/></g><g><ellipse cx="378.657" cy="154.53" fill="#55696e" rx="60.275" ry="70.007" transform="matrix(.707 -.707 .707 .707 1.637 313.012)"/></g></g><g><path d="m255 74.616c-66.589 0-125.738 42.495-147.012 105.594-21.828 64.738-45.208 108.604-45.208 132.278 0 72.234 86.06 161.792 192.22 161.792s192.22-89.559 192.22-161.792c0-23.674-23.38-67.539-45.207-132.278-21.275-63.099-80.424-105.594-147.013-105.594z" fill="#afaab4"/></g><g><path d="m200.289 320.76c0-23.674 23.38-67.539 45.208-132.278 14.494-42.988 46.57-76.407 86.599-93.346-22.946-13.15-49.374-20.52-77.095-20.52-66.589 0-125.737 42.495-147.012 105.594-21.829 64.738-45.209 108.604-45.209 132.278 0 72.234 86.06 161.792 192.22 161.792 20.145 0 39.563-3.231 57.81-8.951-66.382-29.51-112.521-91.681-112.521-144.569z" fill="#a298a5"/></g><g><path d="m255 263.692c-27.806 0-52.505 18.45-61.388 45.845-9.115 28.107-18.877 60.612-18.877 70.891 0 31.361 35.936 56.785 80.266 56.785s80.266-25.423 80.266-56.785c0-10.279-9.763-42.783-18.877-70.891-8.886-27.395-33.584-45.845-61.39-45.845z" fill="#c6c1c8"/></g><g><g><path d="m255 388.676c-21.621 0-39.148-17.527-39.148-39.148v-60.44c0-21.621 17.527-39.148 39.148-39.148 21.621 0 39.148 17.527 39.148 39.148v60.44c0 21.621-17.527 39.148-39.148 39.148z" fill="#415050"/></g><g><path d="m246.834 349.528v-60.44c0-16.117 9.742-29.954 23.657-35.957-4.752-2.05-9.987-3.191-15.491-3.191-21.621 0-39.148 17.527-39.148 39.148v60.44c0 21.621 17.527 39.148 39.148 39.148 5.504 0 10.739-1.141 15.491-3.191-13.914-6.002-23.657-19.84-23.657-35.957z" fill="#3c4646"/></g></g><g><path d="m186.535 255c-9.357 0-16.942-7.585-16.942-16.942v-35.177c0-9.357 7.585-16.942 16.942-16.942 9.357 0 16.942 7.585 16.942 16.942v35.177c0 9.357-7.585 16.942-16.942 16.942z" fill="#3c4646"/></g><g><path d="m312.718 255c-9.357 0-16.942-7.585-16.942-16.942v-35.177c0-9.357 7.585-16.942 16.942-16.942 9.357 0 16.942 7.585 16.942 16.942v35.177c0 9.357-7.586 16.942-16.942 16.942z" fill="#3c4646"/></g></g></g></svg>