<svg id="Layer_1" enable-background="new 0 0 510.314 510.314" height="512" viewBox="0 0 510.314 510.314" width="512" xmlns="http://www.w3.org/2000/svg"><g><g><g><path d="m494.983 317.384c.232-.897.456-1.8.679-2.705-.22.905-.449 1.805-.679 2.705z" fill="#b1e4f9"/></g><g><path d="m251.387 3.766c-31.895 0-59.751 5.931-82.771 13.885l-57.021 68.851c-19.932 24.068-27.812 56.026-20.898 86.501 25.613 112.889 129.583 197.378 249.89 197.378 59.167 0 113.529-27.548 156.472-61.753.175-1.071 5.718-23.144 5.718-53.471.001-138.839-112.551-251.391-251.39-251.391z" fill="#e27d47"/></g><g><path d="m340.565 363.284c-138.839 0-251.391-112.552-251.391-251.391l-30.785 91.727c-17.839 53.151-19.4 110.605-3.317 164.314 17.825 59.527 54.128 105.404 118.496 126.338 24.503 7.969 50.658 12.276 77.819 12.276 117.357 0 215.902-80.428 243.596-189.163.229-.9.459-1.8.679-2.705.104-.43 1.052-4.458 1.398-6.052-42.943 34.204-97.327 54.656-156.495 54.656z" fill="#dd544f"/></g></g><g><g><path d="m107.098 119.559c33.918-32.555 95.291-11.741 96.967 42.983.83 22.143 13.434 40.453 31.269 49.639 14.051 7.276 27.497 6.392 27.888 6.425 34.299-.545 205.178-3.226 205.178-3.226 11.299 0 21.546-4.479 29.084-11.748-5.346-25.665-14.61-49.889-27.13-72.031-.648-.03-1.298-.049-1.953-.049-9.167-.339-16.902-6.695-19.302-15.548-6.549-24.153-28.625-41.919-54.851-41.919-24.21 0-44.883 15.139-53.071 36.467-5.511 14.357-18.913 24.307-34.291 24.401-.348.002-.687 0-1.016-.006-8.794-.168-16.598-5.044-20.809-12.472l-62.865-84.423c-6.284-3.976-12.894-7.479-19.778-10.461l-97.64 23.002c-6.451 4.71-9.845 7.807-9.884 7.829-.006.005-.011.009-.017.014-1.675 1.334-3.332 2.689-4.972 4.065l-50.168 56.967c-5.401 8.405-10.314 17.153-14.701 26.204l-24.918 101.692c-.076 2.498-.116 5.006-.118 7.522.001.255.001.504.002.758.01 5.206.178 10.375.5 15.502l27.79 99.976c3.772 7.242 7.887 14.277 12.323 21.084l56.808 61.674c6.075 4.713 12.371 9.153 18.871 13.303l99.544 26.716c7.417-.057 14.174-.108 20.349-.16l104.392-15.876c6.536-3.457 12.617-7.398 18.232-11.751l48.318-92.522c.531-8.865.145-17.79-1.185-26.61l-57.668-87.029c-7.548-4.664-15.483-8.407-23.822-11.309l-97.245-5.195c-8.155.37-14.776.734-20.216 1.104l-69.503 52.517c-2.077 12.313-.4 25.165 5.406 36.551l58.269 25.443v-35.67c0-.155.031-.29.043-.437-2.49-.48-4.296-2.668-4.246-5.222l.003-.148c.057-2.862 5.909-19.408 8.772-19.385 19.107.151 96.44 0 96.44 0s29.065 45.244 28.055 67.466c-.507 11.157-4.863 22.303-13.773 31.395-12.8 13.129-29.195 13.95-27.751 13.738-.1.01-2.426.232-2.278.218-1.846.091-136.034-1.334-146.202-2.008-22.281-1.381-44.736-19.944-50.248-44.6-2.061-9.099-1.375 1.13-.806-172.285-.01-29.639-3.887-51.871 17.924-72.565z" fill="#7dbe3b"/></g><g><g><g><path d="m137.318 298.198c-2.899 19.374 3.471 39.921 20.57 53.9 21.825 17.58 45.771 11.172 42.927 11.604 18.102-2.922 40.545-6.502 62.826-12.099 8.569-2.173 8.531-14.359 0-16.502-19.048-4.785-49.587-10.284-66.718-12.771-1.593.258-3.169.512-4.703.76 2.844-.431-21.102 5.977-42.927-11.604-4.843-3.96-8.819-8.45-11.975-13.288z" fill="#5ea570"/></g></g><g><path d="m405.931 346.982c-.014-.092-.028-.184-.042-.276-.773-5.051-8.067-5.071-8.915-.032-7.348 43.666-37.169 83.696-86.287 99.535-26.071 8.199-29.931 6.048-178.613 7.78-15.142-.066-30.076-2.85-44.238-7.927 8.961 7.684 18.469 14.747 28.458 21.124l99.546 26.714c7.417-.057 14.174-.108 20.349-.16l104.244-15.798c6.592-3.476 12.723-7.444 18.38-11.829l48.306-92.522c.529-8.866.141-17.79-1.188-26.609z" fill="#5ea570"/></g></g><g><g><path d="m421.245 144.733c-3.533 0-6.396-2.864-6.396-6.396v-12.364c0-3.533 2.864-6.396 6.396-6.396 3.533 0 6.396 2.864 6.396 6.396v12.364c.001 3.532-2.863 6.396-6.396 6.396z" fill="#3c4646"/></g></g><g><g><path d="m499.732 145.638c-.001-.001-.002-.003-.003-.004-5.405 16.897-21.232 29.134-39.923 29.134 0 0-170.879 2.681-205.178 3.226-.391-.034-13.837.851-27.888-6.425-.097-.05-.194-.1-.291-.151-14.321-7.481-23.101-22.509-23.101-38.666v-19.238c0-31.511-25.545-57.057-57.057-57.057-31.511 0-57.056 25.545-57.056 57.056v45.688c.306-4.315.863-8.475 1.832-12.512 2.303-9.595 6.931-18.497 16.031-27.131 32.191-30.897 89.104-13.717 96.25 34.893v-.001c.395 2.654.636 5.472.717 8.09.83 22.143 13.434 40.453 31.269 49.639 14.051 7.276 27.497 6.392 27.888 6.425 32.425-.515 175.816-2.765 205.178-3.226 23.148 0 41.914-18.766 41.914-41.914 0-10.194-3.722-20.107-10.582-27.826z" fill="#5ea570"/></g></g><g><g><path d="m468.4 131.553c-3.982-.147-7.693-1.433-10.815-3.563v87.561c6.844-.107 10.815-.17 10.815-.17 23.148 0 41.914-18.766 41.914-41.914 0-23.149-18.766-41.914-41.914-41.914z" fill="#7dbe3b"/></g></g><g><g><path d="m499.731 145.638c-.001-.001-.002-.003-.003-.004-5.405 16.897-21.232 29.134-39.923 29.134 0 0-.775.012-2.22.035v40.747c4.449-.07 8.117-.127 10.815-.17 23.148 0 41.914-18.766 41.914-41.914 0-10.196-3.722-20.109-10.583-27.828z" fill="#5ea570"/></g></g><g><g><g><path d="m263.64 335.1c-11.919-2.994-28.333-6.267-43.15-8.907l49.539 17.818c.278-3.8-1.857-7.773-6.389-8.911z" fill="#5ea570"/></g></g><g><g><path d="" fill="#5ea570"/></g></g><g><g><path d="m330.424 365.734v-43.964c0-23.89-19.367-43.257-43.257-43.257h-50.985c-21.607 0-39.129 17.474-39.214 39.061.062-2.858 2.397-5.139 5.257-5.116 19.107.151 85.165.797 90.783 2.539 23.976 6.177 38.23 28.445 37.22 50.667z" fill="#5ea570"/></g></g></g><g><g><g><path d="m386.945 350.459c6.688 0 13.085-1.235 18.986-3.477-4.081-27.075-17.032-53.16-39.629-73.452-5.747-5.193-11.755-9.696-18.027-13.572-9.196 9.606-14.85 22.63-14.85 36.98-.001 29.559 23.961 53.521 53.52 53.521z" fill="#64822d"/></g></g><g><path d="m149.323 74.459c27.304 0 49.817-20.451 53.094-46.869-10.677-4.625-22.017-7.986-33.82-9.931-30.205 10.44-52.078 24.359-63.82 32.933 9.592 14.387 25.958 23.867 44.546 23.867z" fill="#64822d"/></g><g><g><path d="m137.498 297.067c7.186 4.546 15.702 7.18 24.835 7.18 25.711 0 46.554-20.843 46.554-46.554 0-4.566-.664-8.975-1.892-13.143-19.45 1.32-23.815 2.699-29.27 4.601-22.761 8.204-36.751 27.307-40.227 47.916z" fill="#64822d"/></g></g><g><g><path d="m208.887 360.296c0-21.091-17.097-38.188-38.188-38.188-10.869 0-20.669 4.548-27.624 11.836 3.474 6.705 8.381 12.895 14.812 18.154 21.825 17.58 45.771 11.172 42.927 11.604 2.583-.417 5.264-.85 8.011-1.297.039-.699.062-1.402.062-2.109z" fill="#64822d"/></g></g><g><path d="m1.748 271.138c-.413 0-.821.021-1.229.038 2.257 35.877 12.032 69.709 27.779 99.942 16.111-9.219 26.971-26.566 26.971-46.46 0-29.558-23.962-53.52-53.521-53.52z" fill="#64822d"/></g><g><g><path d="m340.576 477.854c-6.985-21.433-27.121-36.927-50.885-36.927-29.321 0-53.121 23.581-53.502 52.811 57.141-.483 64.434-1.049 83.093-6.917 7.561-2.439 14.658-5.457 21.294-8.967z" fill="#64822d"/></g></g><g><path d="m162.333 440.927c-19.602 0-36.726 10.545-46.044 26.265 17.706 11.305 36.928 20.44 57.285 27.061 16.096-.153 30.074-.262 42.266-.355-.297-29.304-24.133-52.971-53.507-52.971z" fill="#64822d"/></g><g><g><path d="m393.491 371.833c-29.559 0-53.521 23.962-53.521 53.521 0 16.324 7.312 30.934 18.835 40.749 29.558-22.913 46.202-57.231 48.315-92.514-4.351-1.144-8.918-1.756-13.629-1.756z" fill="#64822d"/></g></g><g><g><path d="m222.195 38.052c-8.872 9.552-14.304 22.343-14.304 36.407 0 29.559 23.962 53.521 53.52 53.521 8.496 0 16.524-1.988 23.659-5.511-.891-1.571-1.631-3.25-2.176-5.029-10.191-33.308-32.059-61.263-60.699-79.388z" fill="#64822d"/></g></g><g><path d="m44.502 392.377c-1.237 0-2.461.055-3.677.137 15.343 23.472 34.5 44.221 56.598 61.367.391-2.605.6-5.269.6-7.984 0-29.558-23.962-53.52-53.521-53.52z" fill="#64822d"/></g><g><path d="m39.741 119.471c28.056-1.668 50.297-24.94 50.297-53.415 0-1.194-.052-2.376-.129-3.55-19.45 16.319-36.393 35.527-50.168 56.965z" fill="#64822d"/></g><g><path d="m1.748 247.393c29.559 0 53.521-23.962 53.521-53.521 0-21.206-12.334-39.529-30.219-48.193-14.976 30.896-23.822 65.313-24.93 101.684.541.018 1.083.03 1.628.03z" fill="#64822d"/></g><g><g><path d="m281.621 241.539c-.969.025-41.594 1.326-54.41 1.908.015 26.918 21.84 48.734 48.762 48.734 25.161 0 45.865-19.058 48.479-43.525-7.434-2.588-15.182-4.521-23.268-5.83-8.184-1.378-19.665-1.288-19.563-1.287z" fill="#64822d"/></g></g></g><g><g><path d="m449.805 122.097h-15c0-7.477-6.083-13.56-13.56-13.56s-13.559 6.083-13.559 13.56h-15c0-15.748 12.812-28.56 28.559-28.56 15.748 0 28.56 12.811 28.56 28.56z" fill="#5ea570"/></g></g></g></g></svg>